Coordinates
version=1
nRows=20
nColumns=32
inDegrees=yes

Units are S.I. units (second, meters, Newtons, ...)
If the header above contains a line with 'inDegrees', this indicates whether rotational values are in degrees (yes) or radians (no).

endheader
time	pelvis_tilt	pelvis_list	pelvis_rotation	pelvis_tx	pelvis_ty	pelvis_tz	hip_flexion_r	hip_adduction_r	hip_rotation_r	knee_angle_r	knee_adduction_r	med_cond_adduction_r	lat_cond_adduction_r	patella_r_constrained_knee_angle	ankle_angle_r	subtalar_angle_r	mtp_angle_r	hip_flexion_l	hip_adduction_l	hip_rotation_l	knee_angle_l	knee_adduction_l	med_cond_adduction_l	lat_cond_adduction_l	patella_l_constrained_knee_angle	ankle_angle_l	subtalar_angle_l	mtp_angle_l	lumbar_extension	lumbar_bending	lumbar_rotation
      2.26500000	     -3.80220643	     -2.95632473	     -1.55005057	      0.16627882	      0.48052051	     -1.21437744	     90.20883482	    -48.17782695	     -1.42372730	   -119.31485753	     -9.75760505	     -0.00000000	     -0.00000000	     -2.08243711	     29.27224861	     18.19974482	      0.00000000	    100.09413233	    -49.56996904	      9.33102503	   -119.82973727	     -9.55946852	     -0.00000000	     -0.00000000	     -2.09142346	     27.51661064	     19.47061710	      0.00000000	    -35.82162394	      3.28413852	     -2.00086817
      2.27000000	     -4.50769515	     -2.88986005	     -1.63848474	      0.16633517	      0.48157847	     -1.21427858	     90.75883042	    -48.05498847	     -1.51926903	   -119.07086195	     -9.74107332	     -0.00000000	     -0.00000000	     -2.07817858	     29.22779112	     18.24275667	      0.00000000	    100.54241395	    -49.54889328	      9.02565915	   -119.78113677	     -9.55648069	      0.00000000	      0.00000000	     -2.09057522	     27.37995429	     19.45492138	      0.00000000	    -34.70469357	      3.06458727	     -2.30697984
      2.27500000	     -5.10472124	     -3.11788504	     -1.71543665	      0.16646042	      0.48314390	     -1.21445046	     90.66796445	    -47.96740243	     -2.22074497	   -118.72481664	     -9.72654885	      0.00000000	      0.00000000	     -2.07213895	     29.18454368	     18.28199983	      0.00000000	    101.22871464	    -49.51932255	      9.18783676	   -119.70020584	     -9.55091066	     -0.00000000	     -0.00000000	     -2.08916271	     27.16742648	     19.44336473	      0.00000000	    -33.74142688	      3.33346351	     -2.28036418
      2.28000000	     -5.64659683	     -3.27554026	     -1.78494195	      0.16652427	      0.48506636	     -1.21456814	     90.54604414	    -47.87976643	     -2.84259508	   -118.31901533	     -9.70915258	     -0.00000000	     -0.00000000	     -2.06505639	     29.13859171	     18.33943243	     -0.00000000	    101.66560095	    -49.48809629	      9.16564517	   -119.55032301	     -9.54562006	      0.00000000	      0.00000000	     -2.08654676	     26.99503428	     19.43329084	     -0.00000000	    -32.86491130	      3.53610684	     -2.25110101
      2.28500000	     -6.09925233	     -3.42066679	     -1.81006008	      0.16660924	      0.48758390	     -1.21464721	     90.23759814	    -47.84407179	     -3.53761962	   -117.85429286	     -9.68901431	     -0.00000000	      0.00000000	     -2.05694545	     29.08852223	     18.36591055	     -0.00000000	    101.83494177	    -49.44716330	      9.01971558	   -119.25761971	     -9.53659716	     -0.00000000	     -0.00000000	     -2.08143812	     26.83655660	     19.41954564	     -0.00000000	    -32.12175086	      3.70260720	     -2.28508102
      2.29000000	     -6.43867513	     -3.42377719	     -1.85518514	      0.16653937	      0.49068399	     -1.21459610	     89.92236448	    -47.75508715	     -4.02133142	   -117.31109810	     -9.66821858	      0.00000000	      0.00000000	     -2.04746491	     29.04837896	     18.43573008	      0.00000000	    101.55000020	    -49.44846974	      8.54900204	   -118.84805847	     -9.51764102	      0.00000000	     -0.00000000	     -2.07428993	     26.69588897	     19.41502810	     -0.00000000	    -31.54497982	      3.76602029	     -2.25512368
      2.29500000	     -6.70187360	     -3.62636754	     -1.90465812	      0.16648863	      0.49426991	     -1.21453898	     89.13706837	    -47.64415358	     -4.96182327	   -116.70965630	     -9.64781188	      0.00000000	      0.00000000	     -2.03696777	     29.01109682	     18.46320732	     -0.00000000	    101.35735592	    -49.43524160	      8.40219765	   -118.31376481	     -9.49349970	     -0.00000000	     -0.00000000	     -2.06496475	     26.57033555	     19.41448949	      0.00000000	    -31.10989051	      3.94578318	     -2.25283056
      2.30000000	     -6.98837569	     -3.22648759	     -1.93495296	      0.16636142	      0.49791816	     -1.21394054	     89.25453451	    -47.55456458	     -4.82210716	   -116.18250377	     -9.61649947	     -0.00000000	     -0.00000000	     -2.02776722	     28.95329940	     18.51480846	      0.00000000	    100.25540332	    -49.46891238	      7.14572664	   -117.68016127	     -9.47200898	      0.00000000	      0.00000000	     -2.05390628	     26.48495611	     19.40714919	      0.00000000	    -30.60435314	      3.51516140	     -2.27155919
      2.30500000	     -7.19607643	     -3.19443138	     -1.91094778	      0.16633023	      0.50190614	     -1.21385649	     88.70001210	    -47.54573316	     -5.38337082	   -115.52902848	     -9.59302271	      0.00000000	      0.00000000	     -2.01636193	     28.86179831	     18.52949404	      0.00000000	     99.51471212	    -49.42296949	      6.46684892	   -117.04702381	     -9.43005684	     -0.00000000	     -0.00000000	     -2.04285595	     26.56195786	     19.40678600	      0.00000000	    -30.22700822	      3.45446065	     -2.37208770
      2.31000000	     -7.39682488	     -3.45718118	     -1.98125422	      0.16627136	      0.50595062	     -1.21376321	     87.68090181	    -47.35488671	     -6.46335058	   -114.85043195	     -9.56849099	      0.00000000	      0.00000000	     -2.00451818	     28.85687082	     18.56900587	      0.00000000	     99.29224283	    -49.43647801	      6.39074532	   -116.41741061	     -9.40603734	     -0.00000000	     -0.00000000	     -2.03186712	     26.24213386	     19.40691180	      0.00000000	    -29.87237909	      3.74828970	     -2.26902620
      2.31500000	     -7.57518775	     -3.52240310	     -1.98605371	      0.16629656	      0.51005909	     -1.21362888	     86.92842009	    -47.26733564	     -7.18008279	   -114.18527740	     -9.53007976	      0.00000000	      0.00000000	     -1.99290905	     28.80060473	     18.64069785	     -0.00000000	     98.70150958	    -49.41699388	      5.92773438	   -115.76525946	     -9.36437210	     -0.00000000	     -0.00000000	     -2.02048494	     26.08042369	     19.40657156	     -0.00000000	    -29.49557249	      3.77327450	     -2.34653336
      2.32000000	     -7.78808768	     -3.29810382	     -2.06717016	      0.16626618	      0.51420575	     -1.21303369	     86.63485861	    -47.08118919	     -7.39504676	   -113.57436573	     -9.49400911	      0.00000000	      0.00000000	     -1.98224663	     28.71639825	     18.60571790	      0.00000000	     97.65591917	    -49.46987840	      4.95386295	   -115.03356243	     -9.32548963	      0.00000000	      0.00000000	     -2.00771441	     26.12260514	     19.40754752	     -0.00000000	    -29.07615829	      3.58349815	     -2.10142247
      2.32500000	     -7.95666859	     -3.60317806	     -2.05662526	      0.16635832	      0.51848422	     -1.21316457	     85.49307876	    -46.98704977	     -8.56466273	   -112.82126339	     -9.45896974	     -0.00000000	     -0.00000000	     -1.96910251	     28.66595606	     18.65473370	      0.00000000	     97.39693171	    -49.42359054	      4.90282812	   -114.37595451	     -9.27118428	      0.00000000	      0.00000000	     -1.99623699	     25.88106285	     19.41228944	     -0.00000000	    -28.72598532	      4.03677180	     -1.96938903
      2.33000000	     -8.12628655	     -3.56564665	     -2.09808762	      0.16640858	      0.52278298	     -1.21285351	     84.85898493	    -46.82529765	     -9.09155439	   -112.13074351	     -9.41226333	     -0.00000000	     -0.00000000	     -1.95705067	     28.58930713	     18.68189829	     -0.00000000	     96.58853846	    -49.42768757	      4.24290735	   -113.66282027	     -9.21798011	      0.00000000	      0.00000000	     -1.98379045	     25.79979917	     19.41474285	      0.00000000	    -28.34013019	      3.97760048	     -1.97251403
      2.33500000	     -8.33780488	     -3.30269792	     -2.13035105	      0.16645249	      0.52695000	     -1.21232780	     84.61215061	    -46.70174211	     -9.20831370	   -111.48552428	     -9.34723488	     -0.00000000	     -0.00000000	     -1.94578947	     28.49686693	     18.71590377	      0.00000000	     95.53304970	    -49.43877287	      3.20933118	   -112.91544733	     -9.16266929	      0.00000000	      0.00000000	     -1.97074633	     25.68934154	     19.41318600	     -0.00000000	    -27.87010961	      3.59196375	     -2.08302510
      2.34000000	     -8.53810981	     -3.37761251	     -2.17816563	      0.16660109	      0.53122128	     -1.21208185	     83.85825242	    -46.51708488	     -9.91568153	   -110.77488441	     -9.28653893	     -0.00000000	     -0.00000000	     -1.93338646	     28.41945605	     18.73111250	      0.00000000	     94.92736055	    -49.43420481	      2.78466139	   -112.20036905	     -9.09161120	      0.00000000	      0.00000000	     -1.95826586	     25.59052508	     19.41667968	      0.00000000	    -27.43843608	      3.79893979	     -1.83081844
      2.34500000	     -8.67681342	     -3.40298778	     -2.18088459	      0.16677277	      0.53568246	     -1.21187711	     83.07653747	    -46.38227713	    -10.54067196	   -110.04042385	     -9.21555015	     -0.00000000	     -0.00000000	     -1.92056771	     28.32360548	     18.76955724	      0.00000000	     94.17313659	    -49.41629918	      2.24484809	   -111.46337214	     -9.01207033	      0.00000000	     -0.00000000	     -1.94540284	     25.41087845	     19.42237358	     -0.00000000	    -27.04640934	      3.82020505	     -1.83384918
      2.35000000	     -8.87093913	     -2.78187218	     -2.25995586	      0.16681439	      0.54003572	     -1.21095703	     83.30024798	    -46.24006043	     -9.97299881	   -109.39929280	     -9.08742381	     -0.00000000	     -0.00000000	     -1.90937786	     28.16586954	     18.82012151	      0.00000000	     92.53616979	    -49.43408341	      0.53604571	   -110.62987317	     -8.96340524	     -0.00000000	     -0.00000000	     -1.93085554	     25.31177547	     19.41929150	     -0.00000000	    -26.56259931	      3.00323542	     -1.96079231
      2.35500000	     -9.03372124	     -3.33338140	     -2.24585996	      0.16717706	      0.54441593	     -1.21123457	     81.81278172	    -46.04662209	    -11.50317895	   -108.59510668	     -9.02522768	     -0.00000000	     -0.00000000	     -1.89534216	     28.11241320	     18.82032188	      0.00000000	     92.58689175	    -49.40202281	      1.02190516	   -109.95402750	     -8.81131291	      0.00000000	      0.00000000	     -1.91905981	     25.12642565	     19.43181258	     -0.00000000	    -26.12845935	      3.65131525	     -1.91671326
      2.36000000	     -9.21768084	     -2.63751920	     -2.32921589	      0.16731253	      0.54881627	     -1.21025298	     82.11539122	    -45.92351768	    -10.75765546	   -107.95134703	     -8.84549663	      0.00000000	      0.00000000	     -1.88410644	     27.93385875	     18.84868289	     -0.00000000	     90.80121358	    -49.41193776	     -0.83434291	   -109.10109183	     -8.74668650	     -0.00000000	     -0.00000000	     -1.90417327	     25.13054149	     19.43051451	      0.00000000	    -25.62176045	      2.80326638	     -1.91938845
